<svg xmlns="http://www.w3.org/2000/svg" viewBox="0 0 300 120">
  <g fill="#010205" stroke="#f2efe6" stroke-width="1.5" stroke-linejoin="round" stroke-linecap="round">
    <path d="M20 82 Q26 59 50 55 L87 51 Q108 24 142 22 L197 24 Q219 29 236 51 L269 58 Q281 61 285 79 L280 94 L20 94 Z"/>
    <path d="M101 50 L119 30 L144 28 L144 51 Z"/>
    <path d="M151 28 L194 30 Q207 35 219 51 L151 51 Z"/>
    <circle cx="73" cy="94" r="18"/>
    <circle cx="230" cy="94" r="18"/>
  </g>
  <g fill="#e2b63d" stroke="#e2b63d">
    <rect x="140" y="12" width="35" height="10" rx="3"/>
    <path d="M26 73 L283 73" fill="none" stroke-width="2.0"/>
  </g>
</svg>